{"title":"La.citta.delle.donne.1980.SWESUB.DVDRip.XviD.-Zen_Bud","uid":5788089,"size":1582114850,"categoryP":"video","categoryS":"movies","magnet":"?xt=urn:btih:b5804cdeec24e8d6095baf996fd196c554f95656&amp;dn=La.citta.delle.donne.1980.SWESUB.DVDRip.XviD.-Zen_Bud&amp;tr=udp%3A%2F%2Ftracker.openbittorrent.com%3A80&amp;tr=udp%3A%2F%2Fopen.demonii.com%3A1337&amp;tr=udp%3A%2F%2Ftracker.coppersurfer.tk%3A6969&amp;tr=udp%3A%2F%2Fexodus.desync.com%3A6969","seeders":0,"leechers":0,"uploader":"Zen_Bud","files":-1,"time":1282729393,"description":"****La.citta.delle.donne.1980.SWESUB.DVDRip.XviD.-Zen_Bud.avi****\n\nFormat                           : AVI\nFile size                        : 1.47 GiB\nDuration                         : 2h 13mn\nOverall bit rate                 : 1 578 Kbps\n\nVideo\n\nFormat                           : MPEG-4 Visual\nCodec ID/Hint                    : XviD\nDuration                         : 2h 13mn\nBit rate                         : 1 437 Kbps\nWidth                            : 716 pixels\nHeight                           : 548 pixels\nDisplay aspect ratio             : 1.858\nStream size                      : 1.34 GiB (91%)\nWriting library                  : XviD 1.1.2 (UTC 2006-11-01)\n\nAudio\n\nFormat                           : MPEG Audio\nCodec ID/Hint                    : MP3\nDuration                         : 2h 13mn\nBit rate                         : 128 Kbps\nChannel(s)                       : 2 channels\nSampling rate                    : 48.0 KHz\nStream size                      : 122 MiB (8%)\n\n","torrent":{"xt":"urn:btih:b5804cdeec24e8d6095baf996fd196c554f95656","amp;dn":"La.citta.delle.donne.1980.SWESUB.DVDRip.XviD.-Zen_Bud","amp;tr":["udp%3A%2F%2Ftracker.openbittorrent.com%3A80","udp%3A%2F%2Fopen.demonii.com%3A1337","udp%3A%2F%2Ftracker.coppersurfer.tk%3A6969","udp%3A%2F%2Fexodus.desync.com%3A6969"],"infoHash":"b5804cdeec24e8d6095baf996fd196c554f95656","infoHashBuffer":{"type":"Buffer","data":[181,128,76,222,236,36,232,214,9,91,175,153,111,209,150,197,84,249,86,86]},"announce":[],"urlList":[]}}